<svg aria-hidden="true" style="position: absolute; width: 0; height: 0; overflow: hidden;" version="1.1" xmlns="http://www.w3.org/2000/svg" xmlns:xlink="http://www.w3.org/1999/xlink">
<defs>
<symbol id="icon-pencil" viewBox="0 0 32 32">
<path d="M27 0c2.761 0 5 2.239 5 5 0 1.126-0.372 2.164-1 3l-2 2-7-7 2-2c0.836-0.628 1.874-1 3-1zM2 23l-2 9 9-2 18.5-18.5-7-7-18.5 18.5zM22.362 11.362l-14 14-1.724-1.724 14-14 1.724 1.724z"></path>
</symbol>
<symbol id="icon-library" viewBox="0 0 34 32">
<path d="M32 30v-2h-2v-12h2v-2h-6v2h2v12h-6v-12h2v-2h-6v2h2v12h-6v-12h2v-2h-6v2h2v12h-6v-12h2v-2h-6v2h2v12h-2v2h-2v2h34v-2h-2z"></path>
<path d="M16 0h2l16 10v2h-34v-2l16-10z"></path>
</symbol>
<symbol id="icon-history" viewBox="0 0 34 32">
<path d="M20 2c7.732 0 14 6.268 14 14s-6.268 14-14 14v-3c2.938 0 5.701-1.144 7.778-3.222s3.222-4.84 3.222-7.778c0-2.938-1.144-5.701-3.222-7.778s-4.84-3.222-7.778-3.222c-2.938 0-5.701 1.144-7.778 3.222-1.598 1.598-2.643 3.601-3.041 5.778h5.819l-7 8-7-8h5.143c0.971-6.784 6.804-12 13.857-12zM26 14v4h-8v-10h4v6z"></path>
</symbol>
<symbol id="icon-stopwatch" viewBox="0 0 32 32">
<path d="M16 6.038v-2.038h4v-2c0-1.105-0.895-2-2-2h-6c-1.105 0-2 0.895-2 2v2h4v2.038c-6.712 0.511-12 6.119-12 12.962 0 7.18 5.82 13 13 13s13-5.82 13-13c0-6.843-5.288-12.451-12-12.962zM22.071 26.071c-1.889 1.889-4.4 2.929-7.071 2.929s-5.182-1.040-7.071-2.929c-1.889-1.889-2.929-4.4-2.929-7.071s1.040-5.182 2.929-7.071c1.814-1.814 4.201-2.844 6.754-2.923l-0.677 9.813c-0.058 0.822 0.389 1.181 0.995 1.181s1.053-0.36 0.995-1.181l-0.677-9.813c2.552 0.079 4.94 1.11 6.754 2.923 1.889 1.889 2.929 4.4 2.929 7.071s-1.040 5.182-2.929 7.071z"></path>
</symbol>
<symbol id="icon-play3" viewBox="0 0 32 32">
<path d="M6 4l20 12-20 12z"></path>
</symbol>
<symbol id="icon-pause2" viewBox="0 0 32 32">
<path d="M4 4h10v24h-10zM18 4h10v24h-10z"></path>
</symbol>
</defs>
</svg>
